<svg width="1280" height="720" viewBox="0 0 1280 720" fill="none" xmlns="http://www.w3.org/2000/svg">
  <rect width="1280" height="720" rx="36" fill="#08111F"/>
  <rect x="36" y="36" width="1208" height="648" rx="28" fill="#0D1B2A" stroke="#17324D"/>
  <text x="84" y="106" fill="#F4F8FB" font-family="Arial, Helvetica, sans-serif" font-size="42" font-weight="700">Product Walkthrough</text>
  <text x="84" y="146" fill="#9EB7CA" font-family="Arial, Helvetica, sans-serif" font-size="22">A typical path from authorized scope selection to review and export</text>

  <rect x="84" y="196" width="260" height="376" rx="24" fill="#112235" stroke="#1B4468"/>
  <rect x="112" y="228" width="56" height="56" rx="18" fill="#153956"/>
  <text x="132" y="265" fill="#49C6E5" font-family="Arial, Helvetica, sans-serif" font-size="28" font-weight="700">1</text>
  <text x="112" y="322" fill="#F4F8FB" font-family="Arial, Helvetica, sans-serif" font-size="26" font-weight="700">Define scope</text>
  <text x="112" y="358" fill="#C9D7E4" font-family="Arial, Helvetica, sans-serif" font-size="18">Set the target, choose</text>
  <text x="112" y="384" fill="#C9D7E4" font-family="Arial, Helvetica, sans-serif" font-size="18">a scan category, and</text>
  <text x="112" y="410" fill="#C9D7E4" font-family="Arial, Helvetica, sans-serif" font-size="18">confirm you are</text>
  <text x="112" y="436" fill="#C9D7E4" font-family="Arial, Helvetica, sans-serif" font-size="18">authorized to test.</text>
  <rect x="112" y="476" width="224" height="46" rx="12" fill="#0C1A29" stroke="#234B6E"/>
  <text x="224" y="505" fill="#7CE38B" font-family="Arial, Helvetica, sans-serif" font-size="17" font-weight="700" text-anchor="middle">Scope + consent</text>

  <rect x="368" y="196" width="260" height="376" rx="24" fill="#112235" stroke="#1B4468"/>
  <rect x="396" y="228" width="56" height="56" rx="18" fill="#153956"/>
  <text x="416" y="265" fill="#49C6E5" font-family="Arial, Helvetica, sans-serif" font-size="28" font-weight="700">2</text>
  <text x="396" y="322" fill="#F4F8FB" font-family="Arial, Helvetica, sans-serif" font-size="26" font-weight="700">Run scan</text>
  <text x="396" y="358" fill="#C9D7E4" font-family="Arial, Helvetica, sans-serif" font-size="18">Queue detector work,</text>
  <text x="396" y="384" fill="#C9D7E4" font-family="Arial, Helvetica, sans-serif" font-size="18">watch progress, and let</text>
  <text x="396" y="410" fill="#C9D7E4" font-family="Arial, Helvetica, sans-serif" font-size="18">workers process the scan</text>
  <text x="396" y="436" fill="#C9D7E4" font-family="Arial, Helvetica, sans-serif" font-size="18">in the background.</text>
  <rect x="396" y="474" width="208" height="18" rx="9" fill="#0C1A29"/>
  <rect x="396" y="474" width="148" height="18" rx="9" fill="#49C6E5"/>
  <rect x="396" y="508" width="208" height="18" rx="9" fill="#0C1A29"/>
  <rect x="396" y="508" width="182" height="18" rx="9" fill="#7CE38B"/>

  <rect x="652" y="196" width="260" height="376" rx="24" fill="#112235" stroke="#1B4468"/>
  <rect x="680" y="228" width="56" height="56" rx="18" fill="#153956"/>
  <text x="700" y="265" fill="#49C6E5" font-family="Arial, Helvetica, sans-serif" font-size="28" font-weight="700">3</text>
  <text x="680" y="322" fill="#F4F8FB" font-family="Arial, Helvetica, sans-serif" font-size="26" font-weight="700">Review findings</text>
  <text x="680" y="358" fill="#C9D7E4" font-family="Arial, Helvetica, sans-serif" font-size="18">Filter results, inspect</text>
  <text x="680" y="384" fill="#C9D7E4" font-family="Arial, Helvetica, sans-serif" font-size="18">severity, and review</text>
  <text x="680" y="410" fill="#C9D7E4" font-family="Arial, Helvetica, sans-serif" font-size="18">captured evidence for</text>
  <text x="680" y="436" fill="#C9D7E4" font-family="Arial, Helvetica, sans-serif" font-size="18">each issue.</text>
  <rect x="680" y="470" width="208" height="92" rx="16" fill="#0C1A29" stroke="#234B6E"/>
  <text x="704" y="504" fill="#FF8B8B" font-family="Arial, Helvetica, sans-serif" font-size="18" font-weight="700">Critical</text>
  <text x="704" y="530" fill="#F4F8FB" font-family="Arial, Helvetica, sans-serif" font-size="17">SSRF detector</text>
  <text x="704" y="554" fill="#9EB7CA" font-family="Arial, Helvetica, sans-serif" font-size="16">Evidence attached</text>

  <rect x="936" y="196" width="260" height="376" rx="24" fill="#112235" stroke="#1B4468"/>
  <rect x="964" y="228" width="56" height="56" rx="18" fill="#153956"/>
  <text x="984" y="265" fill="#49C6E5" font-family="Arial, Helvetica, sans-serif" font-size="28" font-weight="700">4</text>
  <text x="964" y="322" fill="#F4F8FB" font-family="Arial, Helvetica, sans-serif" font-size="26" font-weight="700">Export results</text>
  <text x="964" y="358" fill="#C9D7E4" font-family="Arial, Helvetica, sans-serif" font-size="18">Package the outcome</text>
  <text x="964" y="384" fill="#C9D7E4" font-family="Arial, Helvetica, sans-serif" font-size="18">for triage, reporting,</text>
  <text x="964" y="410" fill="#C9D7E4" font-family="Arial, Helvetica, sans-serif" font-size="18">or internal handoff</text>
  <text x="964" y="436" fill="#C9D7E4" font-family="Arial, Helvetica, sans-serif" font-size="18">workflows.</text>
  <rect x="964" y="476" width="208" height="46" rx="12" fill="#0C1A29" stroke="#234B6E"/>
  <text x="997" y="505" fill="#49C6E5" font-family="Arial, Helvetica, sans-serif" font-size="18" font-weight="700">JSON / CSV / PDF</text>

  <path d="M344 388H368" stroke="#49C6E5" stroke-width="8" stroke-linecap="round"/>
  <path d="M628 388H652" stroke="#49C6E5" stroke-width="8" stroke-linecap="round"/>
  <path d="M912 388H936" stroke="#49C6E5" stroke-width="8" stroke-linecap="round"/>

  <rect x="84" y="610" width="240" height="40" rx="20" fill="#0C1A29" stroke="#17324D"/>
  <text x="112" y="636" fill="#9EB7CA" font-family="Arial, Helvetica, sans-serif" font-size="16">Authorized targets only</text>
  <rect x="348" y="610" width="404" height="40" rx="20" fill="#0C1A29" stroke="#17324D"/>
  <text x="409" y="636" fill="#9EB7CA" font-family="Arial, Helvetica, sans-serif" font-size="16">Orchestration • Evidence • Export</text>
  <rect x="776" y="610" width="370" height="40" rx="20" fill="#0C1A29" stroke="#17324D"/>
  <text x="806" y="636" fill="#49C6E5" font-family="Arial, Helvetica, sans-serif" font-size="16" font-weight="700">Live app: bugbounty-arsenal.net</text>
</svg>